<svg xmlns="http://www.w3.org/2000/svg" xmlns:xlink="http://www.w3.org/1999/xlink" width="512" zoomAndPan="magnify" viewBox="0 0 384 383.999986" height="512" preserveAspectRatio="xMidYMid meet" version="1.2"><defs><filter x="0%" y="0%" width="100%" filterUnits="objectBoundingBox" id="c6467ab3dd" height="100%"><feColorMatrix values="0 0 0 0 1 0 0 0 0 1 0 0 0 0 1 0 0 0 1 0" type="matrix" in="SourceGraphic"/></filter><clipPath id="130850a620"><path d="M 0.558594 0.359375 L 52.363281 0.359375 L 52.363281 158.265625 L 0.558594 158.265625 Z M 0.558594 0.359375 "/></clipPath><clipPath id="40492d884e"><path d="M 23.113281 0.386719 L 29.863281 0.386719 C 42.289062 0.386719 52.363281 10.460938 52.363281 22.886719 L 52.363281 135.683594 C 52.363281 148.109375 42.289062 158.183594 29.863281 158.183594 L 23.113281 158.183594 C 10.6875 158.183594 0.613281 148.109375 0.613281 135.683594 L 0.613281 22.886719 C 0.613281 10.460938 10.6875 0.386719 23.113281 0.386719 Z M 23.113281 0.386719 "/></clipPath><clipPath id="eb644a5711"><rect x="0" width="53" y="0" height="159"/></clipPath><clipPath id="d5d385d308"><path d="M 0.886719 0.695312 L 71.792969 0.695312 L 71.792969 67.183594 L 0.886719 67.183594 Z M 0.886719 0.695312 "/></clipPath><clipPath id="dcd707d086"><path d="M 23.386719 0.695312 L 49.265625 0.695312 C 61.691406 0.695312 71.765625 10.769531 71.765625 23.195312 L 71.765625 44.683594 C 71.765625 57.109375 61.691406 67.183594 49.265625 67.183594 L 23.386719 67.183594 C 10.960938 67.183594 0.886719 57.109375 0.886719 44.683594 L 0.886719 23.195312 C 0.886719 10.769531 10.960938 0.695312 23.386719 0.695312 Z M 23.386719 0.695312 "/></clipPath><clipPath id="043e8fe9f0"><rect x="0" width="72" y="0" height="68"/></clipPath></defs><g id="bd943dd2de"><g mask="url(#64f6f451d9)" transform="matrix(1,0,0,1,148,93)"><g clip-path="url(#eb644a5711)"><g clip-rule="nonzero" clip-path="url(#130850a620)"><g clip-rule="nonzero" clip-path="url(#40492d884e)"><path style=" stroke:none;fill-rule:nonzero;fill:#e1e1e1;fill-opacity:1;" d="M 0.613281 0.386719 L 52.363281 0.386719 L 52.363281 158.265625 L 0.613281 158.265625 Z M 0.613281 0.386719 "/></g></g></g><mask id="64f6f451d9"><g filter="url(#c6467ab3dd)"><rect x="0" width="384" y="0" height="383.999986" style="fill:#000000;fill-opacity:0.12;stroke:none;"/></g></mask></g><g mask="url(#a83c2dc5c2)" transform="matrix(1,0,0,1,208,184)"><g clip-path="url(#043e8fe9f0)"><g clip-rule="nonzero" clip-path="url(#d5d385d308)"><g clip-rule="nonzero" clip-path="url(#dcd707d086)"><path style=" stroke:none;fill-rule:nonzero;fill:#e1e1e1;fill-opacity:1;" d="M 0.886719 0.695312 L 71.792969 0.695312 L 71.792969 67.183594 L 0.886719 67.183594 Z M 0.886719 0.695312 "/></g></g></g><mask id="a83c2dc5c2"><g filter="url(#c6467ab3dd)"><rect x="0" width="384" y="0" height="383.999986" style="fill:#000000;fill-opacity:0.12;stroke:none;"/></g></mask></g><path style="fill:none;stroke-width:35;stroke-linecap:round;stroke-linejoin:miter;stroke:#ffffff;stroke-opacity:1;stroke-miterlimit:4;" d="M 24.989403 24.628355 C 125.661096 114.889762 201.424429 116.030286 252.283424 28.053241 " transform="matrix(0.476806,0.578322,-0.578322,0.476806,158.027222,85.793417)"/></g></svg>