<svg xmlns="http://www.w3.org/2000/svg" xmlns:xlink="http://www.w3.org/1999/xlink" width="64" height="64" viewBox="0 0 384 384" version="1.2" style="display: block;">
<defs>
<filter x="0%" y="0%" width="100%" filterUnits="objectBoundingBox" id="3851b1b98f" height="100%">
<feColorMatrix values="0 0 0 0 1 0 0 0 0 1 0 0 0 0 1 0 0 0 1 0" type="matrix" in="SourceGraphic"/>
</filter>
<clipPath id="557fa115da">
<path d="M 0.558594 0.359375 L 52.363281 0.359375 L 52.363281 158.265625 L 0.558594 158.265625 Z M 0.558594 0.359375 "/>
</clipPath>
<clipPath id="03fcaf737f">
<path d="M 23.113281 0.386719 L 29.863281 0.386719 C 42.289062 0.386719 52.363281 10.460938 52.363281 22.886719 L 52.363281 135.683594 C 52.363281 148.109375 42.289062 158.183594 29.863281 158.183594 L 23.113281 158.183594 C 10.6875 158.183594 0.613281 148.109375 0.613281 135.683594 L 0.613281 22.886719 C 0.613281 10.460938 10.6875 0.386719 23.113281 0.386719 Z M 23.113281 0.386719 "/>
</clipPath>
<clipPath id="913ee69294">
<rect x="0" width="53" y="0" height="159"/>
</clipPath>
<clipPath id="34afd26c12">
<path d="M 0.886719 0.695312 L 71.792969 0.695312 L 71.792969 67.183594 L 0.886719 67.183594 Z M 0.886719 0.695312 "/>
</clipPath>
<clipPath id="ba25fb2fde">
<path d="M 23.386719 0.695312 L 49.265625 0.695312 C 61.691406 0.695312 71.765625 10.769531 71.765625 23.195312 L 71.765625 44.683594 C 71.765625 57.109375 61.691406 67.183594 49.265625 67.183594 L 23.386719 67.183594 C 10.960938 67.183594 0.886719 57.109375 0.886719 44.683594 L 0.886719 23.195312 C 0.886719 10.769531 10.960938 0.695312 23.386719 0.695312 Z M 23.386719 0.695312 "/>
</clipPath>
<clipPath id="94f95ab1ae">
<rect x="0" width="72" y="0" height="68"/>
</clipPath>
</defs>
<g id="2b47e11068">
<g mask="url(#69b81a2d08)" transform="matrix(1,0,0,1,148,93)">
<g clip-path="url(#913ee69294)">
<g clip-rule="nonzero" clip-path="url(#557fa115da)">
<g clip-rule="nonzero" clip-path="url(#03fcaf737f)">
<path style=" stroke:none;fill-rule:nonzero;fill:#508991;fill-opacity:1;" d="M 0.613281 0.386719 L 52.363281 0.386719 L 52.363281 158.265625 L 0.613281 158.265625 Z M 0.613281 0.386719 "/>
</g>
</g>
</g>
<mask id="69b81a2d08">
<g filter="url(#3851b1b98f)">
<rect x="0" width="384" y="0" height="383.999986" style="fill:#000000;fill-opacity:0.12;stroke:none;"/>
</g>
</mask>
</g>
<path style="fill:none;stroke-width:10;stroke-linecap:round;stroke-linejoin:miter;stroke:#508991;stroke-opacity:1;stroke-miterlimit:4;" d="M 7.158672 7.049956 C 34.601437 32.380794 55.263738 32.67134 69.141609 7.924084 " transform="matrix(1.675475,2.036918,-2.036918,1.675475,158.225385,87.141504)"/>
<g mask="url(#2f905a83e8)" transform="matrix(1,0,0,1,208,184)">
<g clip-path="url(#94f95ab1ae)">
<g clip-rule="nonzero" clip-path="url(#34afd26c12)">
<g clip-rule="nonzero" clip-path="url(#ba25fb2fde)">
<path style=" stroke:none;fill-rule:nonzero;fill:#508991;fill-opacity:1;" d="M 0.886719 0.695312 L 71.792969 0.695312 L 71.792969 67.183594 L 0.886719 67.183594 Z M 0.886719 0.695312 "/>
</g>
</g>
</g>
<mask id="2f905a83e8">
<g filter="url(#3851b1b98f)">
<rect x="0" width="384" y="0" height="383.999986" style="fill:#000000;fill-opacity:0.12;stroke:none;"/>
</g>
</mask>
</g>
</g>
</svg>