<svg xmlns="http://www.w3.org/2000/svg" xmlns:xlink="http://www.w3.org/1999/xlink" width="2000" zoomAndPan="magnify" viewBox="0 0 1500 599.999999" height="800" preserveAspectRatio="xMidYMid meet" version="1.2"><defs><filter x="0%" y="0%" width="100%" filterUnits="objectBoundingBox" id="eee53e6003" height="100%"><feColorMatrix values="0 0 0 0 1 0 0 0 0 1 0 0 0 0 1 0 0 0 1 0" type="matrix" in="SourceGraphic"/></filter><clipPath id="2af602b7b9"><path d="M 0.359375 0.671875 L 95.203125 0.671875 L 95.203125 290 L 0.359375 290 Z M 0.359375 0.671875 "/></clipPath><clipPath id="f21a36d769"><path d="M 22.859375 0.671875 L 72.703125 0.671875 C 78.667969 0.671875 84.390625 3.042969 88.613281 7.261719 C 92.832031 11.480469 95.203125 17.203125 95.203125 23.171875 L 95.203125 267.367188 C 95.203125 273.335938 92.832031 279.058594 88.613281 283.277344 C 84.390625 287.496094 78.667969 289.867188 72.703125 289.867188 L 22.859375 289.867188 C 16.890625 289.867188 11.167969 287.496094 6.949219 283.277344 C 2.730469 279.058594 0.359375 273.335938 0.359375 267.367188 L 0.359375 23.171875 C 0.359375 17.203125 2.730469 11.480469 6.949219 7.261719 C 11.167969 3.042969 16.890625 0.671875 22.859375 0.671875 Z M 22.859375 0.671875 "/></clipPath><clipPath id="3b724bbcd8"><rect x="0" width="96" y="0" height="291"/></clipPath><clipPath id="39e7076d9f"><path d="M 0.828125 1.011719 L 130.773438 1.011719 L 130.773438 122.867188 L 0.828125 122.867188 Z M 0.828125 1.011719 "/></clipPath><clipPath id="c2d9f718e2"><path d="M 23.328125 1.011719 L 108.222656 1.011719 C 114.191406 1.011719 119.914062 3.382812 124.132812 7.601562 C 128.351562 11.820312 130.722656 17.542969 130.722656 23.511719 L 130.722656 100.367188 C 130.722656 106.335938 128.351562 112.058594 124.132812 116.277344 C 119.914062 120.496094 114.191406 122.867188 108.222656 122.867188 L 23.328125 122.867188 C 17.359375 122.867188 11.636719 120.496094 7.417969 116.277344 C 3.195312 112.058594 0.828125 106.335938 0.828125 100.367188 L 0.828125 23.511719 C 0.828125 17.542969 3.195312 11.820312 7.417969 7.601562 C 11.636719 3.382812 17.359375 1.011719 23.328125 1.011719 Z M 23.328125 1.011719 "/></clipPath><clipPath id="56c2a7a4d3"><rect x="0" width="131" y="0" height="124"/></clipPath></defs><g id="3f51656ec1"><g style="fill:#508991;fill-opacity:1;"><g transform="translate(129.425371, 429.192195)"><path style="stroke:none" d="M 51.203125 75.8125 C 43.140625 75.8125 36.957031 73.660156 32.65625 69.359375 C 28.351562 65.054688 26.203125 58.738281 26.203125 50.40625 L 26.203125 -175 C 26.203125 -183.332031 28.351562 -189.648438 32.65625 -193.953125 C 36.957031 -198.253906 43.007812 -200.40625 50.8125 -200.40625 C 58.875 -200.40625 65.054688 -198.253906 69.359375 -193.953125 C 73.660156 -189.648438 75.8125 -183.332031 75.8125 -175 L 75.8125 -143.546875 L 71.375 -155.640625 C 75.40625 -169.347656 83.671875 -180.367188 96.171875 -188.703125 C 108.671875 -197.035156 123.253906 -201.203125 139.921875 -201.203125 C 157.117188 -201.203125 172.234375 -197.035156 185.265625 -188.703125 C 198.304688 -180.367188 208.457031 -168.609375 215.71875 -153.421875 C 222.976562 -138.234375 226.609375 -120.019531 226.609375 -98.78125 C 226.609375 -77.820312 222.976562 -59.613281 215.71875 -44.15625 C 208.457031 -28.695312 198.375 -16.800781 185.46875 -8.46875 C 172.570312 -0.132812 157.390625 4.03125 139.921875 4.03125 C 123.523438 4.03125 109.140625 -0.0664062 96.765625 -8.265625 C 84.398438 -16.460938 76.066406 -27.148438 71.765625 -40.328125 L 76.609375 -40.328125 L 76.609375 50.40625 C 76.609375 58.738281 74.390625 65.054688 69.953125 69.359375 C 65.523438 73.660156 59.273438 75.8125 51.203125 75.8125 Z M 125.796875 -34.28125 C 135.742188 -34.28125 144.476562 -36.695312 152 -41.53125 C 159.53125 -46.375 165.378906 -53.566406 169.546875 -63.109375 C 173.710938 -72.648438 175.796875 -84.539062 175.796875 -98.78125 C 175.796875 -120.289062 171.226562 -136.351562 162.09375 -146.96875 C 152.957031 -157.59375 140.859375 -162.90625 125.796875 -162.90625 C 115.859375 -162.90625 107.125 -160.550781 99.59375 -155.84375 C 92.070312 -151.132812 86.226562 -144.007812 82.0625 -134.46875 C 77.894531 -124.925781 75.8125 -113.03125 75.8125 -98.78125 C 75.8125 -77.550781 80.378906 -61.492188 89.515625 -50.609375 C 98.648438 -39.722656 110.742188 -34.28125 125.796875 -34.28125 Z M 125.796875 -34.28125 "/></g></g><g style="fill:#508991;fill-opacity:1;"><g transform="translate(355.211765, 429.192195)"><path style="stroke:none" d="M 52.015625 3.21875 C 43.679688 3.21875 37.296875 1.003906 32.859375 -3.421875 C 28.421875 -7.859375 26.203125 -14.242188 26.203125 -22.578125 L 26.203125 -175 C 26.203125 -183.332031 28.351562 -189.648438 32.65625 -193.953125 C 36.957031 -198.253906 43.007812 -200.40625 50.8125 -200.40625 C 58.601562 -200.40625 64.648438 -198.253906 68.953125 -193.953125 C 73.253906 -189.648438 75.40625 -183.332031 75.40625 -175 L 75.40625 -149.59375 L 71.375 -149.59375 C 75.132812 -165.71875 82.523438 -177.945312 93.546875 -186.28125 C 104.566406 -194.613281 119.21875 -199.585938 137.5 -201.203125 C 143.144531 -201.742188 147.644531 -200.332031 151 -196.96875 C 154.363281 -193.613281 156.316406 -188.441406 156.859375 -181.453125 C 157.390625 -174.734375 155.835938 -169.289062 152.203125 -165.125 C 148.578125 -160.957031 143.140625 -158.46875 135.890625 -157.65625 L 127.015625 -156.859375 C 110.617188 -155.242188 98.253906 -150.203125 89.921875 -141.734375 C 81.585938 -133.265625 77.421875 -121.367188 77.421875 -106.046875 L 77.421875 -22.578125 C 77.421875 -14.242188 75.269531 -7.859375 70.96875 -3.421875 C 66.664062 1.003906 60.347656 3.21875 52.015625 3.21875 Z M 52.015625 3.21875 "/></g></g><g style="fill:#508991;fill-opacity:1;"><g transform="translate(497.134118, 429.192195)"><path style="stroke:none" d="M 116.125 4.03125 C 95.695312 4.03125 77.957031 -0.132812 62.90625 -8.46875 C 47.851562 -16.800781 36.160156 -28.695312 27.828125 -44.15625 C 19.492188 -59.613281 15.328125 -77.820312 15.328125 -98.78125 C 15.328125 -114.644531 17.675781 -128.828125 22.375 -141.328125 C 27.082031 -153.828125 33.867188 -164.578125 42.734375 -173.578125 C 51.609375 -182.585938 62.226562 -189.441406 74.59375 -194.140625 C 86.957031 -198.847656 100.800781 -201.203125 116.125 -201.203125 C 136.550781 -201.203125 154.289062 -197.035156 169.34375 -188.703125 C 184.40625 -180.367188 196.101562 -168.539062 204.4375 -153.21875 C 212.769531 -137.894531 216.9375 -119.75 216.9375 -98.78125 C 216.9375 -82.925781 214.582031 -68.679688 209.875 -56.046875 C 205.164062 -43.410156 198.375 -32.585938 189.5 -23.578125 C 180.632812 -14.578125 170.019531 -7.722656 157.65625 -3.015625 C 145.289062 1.679688 131.445312 4.03125 116.125 4.03125 Z M 116.125 -34.28125 C 126.070312 -34.28125 134.804688 -36.695312 142.328125 -41.53125 C 149.859375 -46.375 155.707031 -53.566406 159.875 -63.109375 C 164.039062 -72.648438 166.125 -84.539062 166.125 -98.78125 C 166.125 -120.289062 161.550781 -136.351562 152.40625 -146.96875 C 143.269531 -157.59375 131.175781 -162.90625 116.125 -162.90625 C 106.175781 -162.90625 97.4375 -160.550781 89.90625 -155.84375 C 82.382812 -151.132812 76.539062 -144.007812 72.375 -134.46875 C 68.207031 -124.925781 66.125 -113.03125 66.125 -98.78125 C 66.125 -77.550781 70.691406 -61.492188 79.828125 -50.609375 C 88.972656 -39.722656 101.070312 -34.28125 116.125 -34.28125 Z M 116.125 -34.28125 "/></g></g><g style="fill:#508991;fill-opacity:1;"><g transform="translate(713.243875, 429.192195)"><path style="stroke:none" d="M 117.34375 4.03125 C 96.632812 4.03125 78.617188 -0.203125 63.296875 -8.671875 C 47.984375 -17.140625 36.160156 -29.164062 27.828125 -44.75 C 19.492188 -60.34375 15.328125 -78.625 15.328125 -99.59375 C 15.328125 -115.457031 17.675781 -129.640625 22.375 -142.140625 C 27.082031 -154.640625 33.867188 -165.253906 42.734375 -173.984375 C 51.609375 -182.722656 62.363281 -189.441406 75 -194.140625 C 87.632812 -198.847656 101.75 -201.203125 117.34375 -201.203125 C 126.207031 -201.203125 135.8125 -199.992188 146.15625 -197.578125 C 156.507812 -195.160156 166.257812 -191.128906 175.40625 -185.484375 C 179.707031 -182.796875 182.53125 -179.566406 183.875 -175.796875 C 185.21875 -172.035156 185.484375 -168.207031 184.671875 -164.3125 C 183.867188 -160.414062 182.1875 -157.054688 179.625 -154.234375 C 177.070312 -151.410156 173.914062 -149.660156 170.15625 -148.984375 C 166.394531 -148.316406 162.226562 -149.191406 157.65625 -151.609375 C 151.738281 -155.109375 145.6875 -157.726562 139.5 -159.46875 C 133.320312 -161.21875 127.410156 -162.09375 121.765625 -162.09375 C 112.898438 -162.09375 105.109375 -160.679688 98.390625 -157.859375 C 91.671875 -155.035156 85.957031 -151.003906 81.25 -145.765625 C 76.539062 -140.523438 72.976562 -134.003906 70.5625 -126.203125 C 68.144531 -118.410156 66.9375 -109.40625 66.9375 -99.1875 C 66.9375 -79.300781 71.707031 -63.644531 81.25 -52.21875 C 90.789062 -40.789062 104.296875 -35.078125 121.765625 -35.078125 C 127.410156 -35.078125 133.257812 -35.882812 139.3125 -37.5 C 145.363281 -39.113281 151.476562 -41.664062 157.65625 -45.15625 C 162.226562 -47.582031 166.328125 -48.390625 169.953125 -47.578125 C 173.585938 -46.773438 176.613281 -44.960938 179.03125 -42.140625 C 181.445312 -39.316406 182.921875 -35.953125 183.453125 -32.046875 C 183.992188 -28.148438 183.523438 -24.320312 182.046875 -20.5625 C 180.566406 -16.800781 177.8125 -13.710938 173.78125 -11.296875 C 164.914062 -5.910156 155.507812 -2.007812 145.5625 0.40625 C 135.613281 2.820312 126.207031 4.03125 117.34375 4.03125 Z M 117.34375 4.03125 "/></g></g><g style="fill:#508991;fill-opacity:1;"><g transform="translate(887.439206, 429.192195)"><path style="stroke:none" d=""/></g></g><g style="fill:#508991;fill-opacity:1;"><g transform="translate(980.575274, 429.192195)"><path style="stroke:none" d=""/></g></g><g style="fill:#508991;fill-opacity:1;"><g transform="translate(1073.711341, 429.192195)"><path style="stroke:none" d=""/></g></g><g style="fill:#508991;fill-opacity:1;"><g transform="translate(1166.847808, 429.192195)"><path style="stroke:none" d="M 76.203125 75.8125 C 70.296875 75.8125 65.457031 74.265625 61.6875 71.171875 C 57.925781 68.078125 55.707031 63.972656 55.03125 58.859375 C 54.363281 53.753906 55.238281 48.378906 57.65625 42.734375 L 85.078125 -18.140625 L 85.078125 2.828125 L 11.6875 -166.9375 C 9.269531 -172.84375 8.460938 -178.347656 9.265625 -183.453125 C 10.078125 -188.566406 12.566406 -192.671875 16.734375 -195.765625 C 20.898438 -198.859375 26.613281 -200.40625 33.875 -200.40625 C 40.050781 -200.40625 45.019531 -198.992188 48.78125 -196.171875 C 52.550781 -193.347656 55.914062 -188.035156 58.875 -180.234375 L 113.296875 -44.359375 L 101.203125 -44.359375 L 156.859375 -180.640625 C 159.804688 -188.171875 163.296875 -193.347656 167.328125 -196.171875 C 171.367188 -198.992188 176.75 -200.40625 183.46875 -200.40625 C 189.375 -200.40625 194.070312 -198.859375 197.5625 -195.765625 C 201.0625 -192.671875 203.210938 -188.632812 204.015625 -183.65625 C 204.828125 -178.6875 203.890625 -173.242188 201.203125 -167.328125 L 103.21875 56.453125 C 99.726562 63.972656 95.96875 69.078125 91.9375 71.765625 C 87.90625 74.460938 82.660156 75.8125 76.203125 75.8125 Z M 76.203125 75.8125 "/></g></g><g mask="url(#b5a39072dd)" transform="matrix(1,0,0,1,940,140)"><g clip-path="url(#3b724bbcd8)"><g clip-rule="nonzero" clip-path="url(#2af602b7b9)"><g clip-rule="nonzero" clip-path="url(#f21a36d769)"><path style=" stroke:none;fill-rule:nonzero;fill:#508991;fill-opacity:1;" d="M 0.359375 0.671875 L 95.203125 0.671875 L 95.203125 290.015625 L 0.359375 290.015625 Z M 0.359375 0.671875 "/></g></g></g><mask id="b5a39072dd"><g filter="url(#eee53e6003)"><rect x="0" width="1500" y="0" height="599.999999" style="fill:#000000;fill-opacity:0.12;stroke:none;"/></g></mask></g><path style="fill:none;stroke-width:59;stroke-linecap:round;stroke-linejoin:miter;stroke:#508991;stroke-opacity:1;stroke-miterlimit:4;" d="M 41.935851 41.398242 C 236.415029 209.90845 382.436263 211.966688 479.991472 47.566368 " transform="matrix(0.473577,0.580729,-0.580729,0.473577,956.075816,121.123426)"/><g mask="url(#b0b0dc3351)" transform="matrix(1,0,0,1,1050,307)"><g clip-path="url(#56c2a7a4d3)"><g clip-rule="nonzero" clip-path="url(#39e7076d9f)"><g clip-rule="nonzero" clip-path="url(#c2d9f718e2)"><path style=" stroke:none;fill-rule:nonzero;fill:#508991;fill-opacity:1;" d="M 0.828125 1.011719 L 130.773438 1.011719 L 130.773438 122.867188 L 0.828125 122.867188 Z M 0.828125 1.011719 "/></g></g></g><mask id="b0b0dc3351"><g filter="url(#eee53e6003)"><rect x="0" width="1500" y="0" height="599.999999" style="fill:#000000;fill-opacity:0.12;stroke:none;"/></g></mask></g></g></svg>