<svg xmlns="http://www.w3.org/2000/svg" viewBox="0 0 324 324" width="24" height="24">
  <path d="M 299.585938 113.148438 C 290.730469 115.191406 285.210938 124.027344 287.253906 132.882812 C 289.449219 142.367188 290.554688 152.164062 290.554688 162 C 290.554688 233.042969 232.757812 290.839844 161.714844 290.839844 C 90.671875 290.839844 32.875 233.042969 32.875 162 C 32.875 90.957031 90.671875 33.160156 161.714844 33.160156 C 178.859375 33.160156 195.496094 36.464844 211.171875 42.988281 C 219.5625 46.472656 229.191406 42.503906 232.683594 34.117188 C 236.175781 25.730469 232.203125 16.097656 223.8125 12.605469 C 204.113281 4.40625 183.222656 0.25 161.714844 0.25 C 72.523438 0.25 -0.0351562 72.808594 -0.0351562 162 C -0.0351562 251.1875 72.523438 323.75 161.714844 323.75 C 250.902344 323.75 323.464844 251.1875 323.464844 162 C 323.464844 149.675781 322.070312 137.390625 319.320312 125.476562 C 317.277344 116.625 308.445312 111.097656 299.585938 113.148438" fill="#508991"/>
  <path d="M 323.839844 26.203125 C 317.3125 19.882812 306.898438 20.042969 300.570312 26.570312 L 131.066406 201.511719 L 89.496094 160.46875 C 83.03125 154.085938 72.613281 154.152344 66.226562 160.617188 C 59.84375 167.085938 59.910156 177.503906 66.375 183.886719 L 119.765625 236.59375 C 122.847656 239.640625 127 241.34375 131.328125 241.34375 C 131.386719 241.34375 131.449219 241.34375 131.507812 241.339844 C 135.898438 241.292969 140.085938 239.492188 143.144531 236.339844 L 324.207031 49.46875 C 330.53125 42.945312 330.363281 32.527344 323.839844 26.203125" fill="#508991"/>
</svg>